<?xml version="1.0" standalone="no"?><svg xmlns="http://www.w3.org/2000/svg" viewBox="0 0 1440 320"><path fill="#5c291c" fill-opacity="1" d="M0,192L18.5,170.7C36.9,149,74,107,111,90.7C147.7,75,185,85,222,96C258.5,107,295,117,332,128C369.2,139,406,149,443,149.3C480,149,517,139,554,122.7C590.8,107,628,85,665,112C701.5,139,738,213,775,224C812.3,235,849,181,886,170.7C923.1,160,960,192,997,181.3C1033.8,171,1071,117,1108,96C1144.6,75,1182,85,1218,106.7C1255.4,128,1292,160,1329,165.3C1366.2,171,1403,149,1422,138.7L1440,128L1440,320L1421.5,320C1403.1,320,1366,320,1329,320C1292.3,320,1255,320,1218,320C1181.5,320,1145,320,1108,320C1070.8,320,1034,320,997,320C960,320,923,320,886,320C849.2,320,812,320,775,320C738.5,320,702,320,665,320C627.7,320,591,320,554,320C516.9,320,480,320,443,320C406.2,320,369,320,332,320C295.4,320,258,320,222,320C184.6,320,148,320,111,320C73.8,320,37,320,18,320L0,320Z"></path></svg>